# Blender 3.4.0
# www.blender.org
mtllib bak_wall.mtl
o backWall
v 1.000000 1.590000 -1.040000
v -1.020000 1.590000 -1.040000
v -0.990000 0.000000 -1.040000
v 1.000000 0.000000 -1.040000
v -0.518978 0.573390 -1.040000
v -0.518978 1.315102 -1.040000
v -0.098948 1.315102 -1.040000
v -0.088124 0.704123 -1.040000
v -0.255098 0.562196 -1.040000
v -0.097915 0.575989 -1.040000
vn -0.0000 -0.0000 1.0000
vt 0.000000 1.000000
vt 0.000000 1.000000
vt 0.000000 1.000000
vt 0.000000 1.000000
vt 0.000000 1.000000
vt 0.000000 1.000000
vt 0.000000 1.000000
vt 0.000000 1.000000
vt 0.000000 1.000000
vt 0.000000 1.000000
s 1
usemtl backWall.001
f 7/7/1 1/1/1 2/2/1
f 4/4/1 8/8/1 10/10/1
f 3/3/1 9/9/1 5/5/1
f 3/3/1 5/5/1 2/2/1
f 5/5/1 6/6/1 2/2/1
f 7/7/1 8/8/1 1/1/1
f 6/6/1 7/7/1 2/2/1
f 10/10/1 9/9/1 3/3/1
f 4/4/1 1/1/1 8/8/1
f 10/10/1 3/3/1 4/4/1
