# Blender 3.4.0
# www.blender.org
mtllib suelo.mtl
o ceiling
v 1.000000 1.590000 -1.040000
v 1.000000 1.590000 0.990000
v -1.020000 1.590000 0.990000
v -1.020000 1.590000 -1.040000
vn -0.0000 -1.0000 -0.0000
vt 0.000000 1.000000
vt 0.000000 1.000000
vt 0.000000 1.000000
vt 0.000000 1.000000
s 1
usemtl ceiling.001
f 1/1/1 2/2/1 3/3/1
f 4/4/1 1/1/1 3/3/1
o floor
v 1.000000 0.000000 -1.040000
v -0.990000 0.000000 -1.040000
v -1.010000 -0.000000 0.990000
v 1.000000 -0.000000 0.990000
vn -0.0000 1.0000 -0.0000
vt 0.000000 1.000000
vt 0.000000 1.000000
vt 0.000000 1.000000
vt 0.000000 1.000000
s 1
usemtl floor.003
f 5/5/2 6/6/2 7/7/2
f 8/8/2 5/5/2 7/7/2
